<?xml version="1.0" encoding="utf-8"?>
<!-- Generator: Adobe Illustrator 15.0.0, SVG Export Plug-In . SVG Version: 6.00 Build 0)  -->
<!DOCTYPE svg PUBLIC "-//W3C//DTD SVG 1.1//EN" "http://www.w3.org/Graphics/SVG/1.1/DTD/svg11.dtd">
<svg version="1.1" id="Layer_1" xmlns="http://www.w3.org/2000/svg" xmlns:xlink="http://www.w3.org/1999/xlink" x="0px" y="0px"
	 width="33.951px" height="48.036px" viewBox="0 0 33.951 48.036" enable-background="new 0 0 33.951 48.036" xml:space="preserve">
<path d="M12.002-12.018c-9.376,0-16.977,7.654-16.977,17.098c0,8.92,7.688,20.426,12.822,26.027c1.918,2.091,4.152,4.91,4.152,4.91
	s2.399-2.836,4.458-4.988c5.131-5.366,12.519-16.145,12.519-25.949C28.976-4.363,21.376-12.018,12.002-12.018z"/>
<g>
	<path fill-rule="evenodd" clip-rule="evenodd" fill="#FFFFFF" d="M11.166-3.493c0.285,0,0.569,0,0.854,0
		c6.263,0.257,10.401,2.674,13.737,5.887c0,0.003,0,0.007,0,0.011c-0.666,0.657-1.328,1.319-1.985,1.985
		c-1.417-1.406-3.106-2.634-5.088-3.537c-1.975-0.899-4.285-1.53-7.084-1.53c-2.798,0-5.12,0.63-7.096,1.53
		C2.52,1.755,0.831,2.977-0.575,4.39C-1.247,3.734-1.899,3.06-2.57,2.405c0-0.003,0-0.008,0-0.011
		C0.765-0.819,4.902-3.236,11.166-3.493z"/>
	<path fill-rule="evenodd" clip-rule="evenodd" fill="#FFFFFF" d="M21.765,6.374c-0.641,0.683-1.324,1.322-1.974,1.996
		c-0.956-0.934-2.087-1.773-3.425-2.384c-1.327-0.604-2.898-1.031-4.768-1.031c-1.869,0-3.446,0.424-4.778,1.031
		C5.484,6.594,4.349,7.429,3.405,8.369C2.83,7.797,2.25,7.225,1.653,6.629C1.605,6.581,1.411,6.41,1.409,6.384
		c0-0.024,0.165-0.167,0.222-0.221c2.025-1.922,4.585-3.41,8.038-3.891c0.52-0.073,1.057-0.095,1.641-0.122
		c1.168-0.054,2.406,0.107,3.371,0.322C17.657,3.132,19.984,4.605,21.765,6.374z"/>
	<path fill-rule="evenodd" clip-rule="evenodd" fill="#FFFFFF" d="M17.784,10.353c-0.641,0.684-1.323,1.322-1.974,1.996
		c-1.006-0.928-2.31-1.764-4.224-1.762c-1.908,0.001-3.208,0.835-4.213,1.762c-0.653-0.662-1.311-1.319-1.973-1.973
		C6.64,9.139,8.26,8.125,10.456,7.848C13.667,7.444,16.216,8.782,17.784,10.353z"/>
	<path fill-rule="evenodd" clip-rule="evenodd" fill="#FFFFFF" d="M11.753,18.835c-0.096,0-0.192,0-0.289,0
		c-0.654-0.051-1.175-0.361-1.508-0.721c-0.358-0.388-0.624-0.912-0.61-1.618c0.014-0.678,0.304-1.191,0.677-1.552
		c0.369-0.358,0.905-0.644,1.585-0.644c0.682,0,1.215,0.285,1.585,0.644c0.362,0.35,0.663,0.875,0.676,1.552
		c0.014,0.718-0.259,1.238-0.61,1.618C12.903,18.502,12.428,18.766,11.753,18.835z"/>
</g>
</svg>
